<svg width="348" height="348" viewBox="0 0 348 348" fill="none" xmlns="http://www.w3.org/2000/svg">
<path fill-rule="evenodd" clip-rule="evenodd" d="M311.002 0C309.466 2.86065 307.628 5.81603 306.399 8.84961C302.154 6.32319 297.826 3.37505 294.002 0.00292969H279.993C272.746 8.05708 267.272 17.0943 263.406 26.6543C252.333 20.0642 242.859 10.909 236.013 0.00292969H236.011L236.013 0H224.5C217.919 9.5035 206.815 15.6493 194.397 15.6494H189.397V20.6494C189.397 33.0658 183.186 44.0373 173.685 50.6201C164.183 44.0373 157.972 33.0658 157.972 20.6494V15.6494H152.972C141.33 15.6493 130.969 10.248 124.297 1.74219C123.852 1.17509 123.424 0.594029 123.013 0H111.013C104.166 10.906 95.0357 20.0642 83.9629 26.6543C80.0976 17.0943 74.7487 8.05415 67.502 0H53.002C49.1776 3.37212 45.2154 6.32319 40.9697 8.84961C39.741 5.81603 38.5383 2.86358 37.002 0.00292969H25.002C27.9303 4.16271 30.1727 8.69823 32.0312 13.4375C28.2986 15.0668 24.4688 16.4017 20.5762 17.4404L17.7793 18.1855L17.0332 20.9824C15.9947 24.8744 14.6601 28.7035 13.0312 32.4355C9.2403 30.9484 5.58811 29.1858 2.10156 27.168L0 26V37C2.86107 38.5373 5.41031 40.1447 8.44434 41.374C5.91773 45.6204 3.37254 49.675 0 53.5V67.5C8.05459 74.7476 16.6878 80.5045 26.2461 84.3701C19.6561 95.4417 10.905 104.655 0 111.5V123.5C9.5044 130.082 15.3115 140.913 15.3115 153.331V158.331H20.3115C32.7289 158.331 43.7039 164.543 50.2852 174.047C43.7039 183.55 32.7289 189.763 20.3115 189.763H15.3115V194.763C15.3115 207.178 9.49989 218.417 0 225V236.5C10.8758 243.341 19.6705 252.584 26.2471 263.633C16.6878 267.498 8.05436 272.753 0 280V294.5C3.37269 298.325 5.91846 302.382 8.44531 306.628C5.41102 307.857 2.86134 308.963 0 310.5V322L2.10059 320.834C5.58764 318.816 9.24067 317.053 13.0322 315.565C14.6615 319.297 15.9969 323.126 17.0361 327.018L17.7822 329.812L20.5771 330.559C24.4693 331.598 28.2988 332.934 32.0312 334.563C30.1928 339.252 27.5167 343.652 25 348H37C38.5364 345.139 39.7409 342.186 40.9697 339.152C45.2152 341.679 49.1756 344.628 53 348H67.5C74.747 339.946 80.0975 330.908 83.9629 321.349C95.0356 327.938 104.153 337.094 111 348H123C129.581 338.497 140.554 332.296 152.972 332.296H157.972V327.296C157.972 314.879 164.182 303.906 173.685 297.323C183.187 303.906 189.397 314.879 189.397 327.296V332.296H194.397C206.815 332.296 217.919 338.497 224.5 348H236C242.847 337.094 252.334 327.938 263.406 321.349C267.272 330.908 272.753 339.946 280 348H294C297.824 344.628 302.154 341.679 306.399 339.152C307.628 342.186 309.464 345.139 311 348H322C319.483 343.652 317.176 339.252 315.338 334.563C319.953 332.548 324.733 331.108 329.587 329.812C330.882 324.959 332.322 320.18 334.337 315.565C339.025 317.404 343.652 319.482 348 322V310.5C345.139 308.963 341.958 307.857 338.924 306.628C341.451 302.382 344.627 298.325 348 294.5V280C339.946 272.753 330.681 267.498 321.122 263.633C327.699 252.584 337.124 243.341 348 236.5V225C335.988 216.676 332.058 203.597 332.058 189.763C318.228 189.763 305.401 186.058 297.084 174.047C305.401 162.036 318.228 158.331 332.058 158.331V153.331C332.058 140.913 338.496 130.082 348 123.5V111.5C337.095 104.655 327.713 95.4417 321.123 84.3701C330.681 80.5045 339.945 74.7476 348 67.5V53.5C344.627 49.675 341.451 45.6204 338.925 41.374C341.959 40.1447 345.139 38.5373 348 37V26C343.652 28.5172 339.026 30.5965 334.338 32.4355C332.709 28.7035 331.374 24.8744 330.336 20.9824L329.59 18.1855L326.793 17.4404C322.9 16.4017 319.071 15.0668 315.338 13.4375C316.825 9.64625 318.588 5.9937 320.604 2.50684L322.002 0H311.002ZM299.919 310.146C300.291 316.812 301.382 323.289 303.113 329.5C297.497 332.667 292.145 336.476 287.168 340.928C280.677 333.621 275.736 325.422 272.344 316.755C280.871 313.026 290.163 310.722 299.919 310.146ZM47.4502 310.146C57.2062 310.722 66.4986 313.026 75.0254 316.755C71.6331 325.422 66.6921 333.621 60.2012 340.928C55.224 336.476 49.8722 332.667 44.2559 329.5C45.9876 323.289 47.0782 316.812 47.4502 310.146ZM259.86 263.627C255.662 279.354 255.748 295.994 260.121 311.692C248.168 318.437 237.893 327.803 230.078 339.008C226.425 334.628 221.977 330.932 216.958 328.137C216.93 328.121 216.902 328.105 216.874 328.09C215.919 327.561 214.944 327.064 213.949 326.602C213.916 326.586 213.883 326.571 213.85 326.556C213.256 326.282 212.656 326.019 212.05 325.77C212.002 325.75 211.953 325.731 211.905 325.711C211.57 325.574 211.233 325.441 210.895 325.312C210.804 325.278 210.714 325.244 210.624 325.21C210.452 325.146 210.279 325.083 210.106 325.021C209.88 324.939 209.653 324.859 209.425 324.781C209.255 324.723 209.085 324.666 208.914 324.61C208.782 324.567 208.649 324.525 208.517 324.482C208.248 324.397 207.979 324.314 207.709 324.233C207.603 324.202 207.498 324.17 207.392 324.139C207.203 324.084 207.015 324.03 206.825 323.978C206.581 323.91 206.335 323.843 206.089 323.779C205.953 323.744 205.817 323.712 205.681 323.678C205.497 323.632 205.314 323.587 205.13 323.543C205.009 323.514 204.889 323.485 204.768 323.457C204.498 323.396 204.228 323.337 203.957 323.28C203.792 323.246 203.626 323.213 203.46 323.18C203.228 323.134 202.994 323.089 202.761 323.047C202.634 323.024 202.507 323.002 202.38 322.979C202.158 322.941 201.936 322.904 201.714 322.869C201.588 322.849 201.461 322.829 201.335 322.811C201.04 322.766 200.743 322.724 200.446 322.686C200.338 322.672 200.23 322.659 200.122 322.646C199.857 322.613 199.592 322.583 199.326 322.555C199.272 322.549 199.218 322.542 199.163 322.536C197.903 310.167 191.786 299.238 182.763 291.681C193.929 283.873 203.265 273.621 209.992 261.699C216.53 263.52 223.23 264.594 229.96 264.928C239.392 265.397 248.881 264.409 258.06 261.959L260.478 261.312L259.86 263.627ZM89.3096 261.959C98.4881 264.409 107.977 265.397 117.409 264.928C124.139 264.594 130.84 263.52 137.378 261.699C144.105 273.621 153.44 283.873 164.606 291.681C155.583 299.238 149.466 310.167 148.206 322.536C148.152 322.542 148.098 322.549 148.044 322.555C147.778 322.583 147.513 322.613 147.248 322.646C147.14 322.659 147.032 322.672 146.924 322.686C146.627 322.724 146.331 322.766 146.035 322.811C145.909 322.829 145.782 322.849 145.656 322.869C145.434 322.904 145.212 322.941 144.99 322.979C144.863 323.002 144.736 323.024 144.609 323.047C144.376 323.089 144.143 323.134 143.91 323.18C143.744 323.213 143.578 323.246 143.413 323.28C143.142 323.337 142.872 323.396 142.603 323.457C142.481 323.485 142.361 323.514 142.24 323.543C142.056 323.587 141.872 323.632 141.688 323.678C141.553 323.712 141.417 323.744 141.281 323.779C141.035 323.843 140.79 323.91 140.545 323.978C140.356 324.03 140.167 324.084 139.979 324.139C139.872 324.17 139.767 324.202 139.661 324.233C139.391 324.314 139.122 324.397 138.854 324.482C138.721 324.525 138.588 324.567 138.456 324.61C138.285 324.666 138.115 324.723 137.945 324.781C137.717 324.859 137.49 324.939 137.264 325.021C137.091 325.083 136.918 325.146 136.746 325.21C136.656 325.244 136.566 325.278 136.476 325.312C136.137 325.441 135.8 325.574 135.465 325.711C135.417 325.731 135.368 325.75 135.32 325.77C134.714 326.019 134.114 326.282 133.521 326.556C133.487 326.571 133.454 326.586 133.421 326.602C132.426 327.064 131.451 327.561 130.496 328.09C130.468 328.106 130.439 328.121 130.411 328.137C125.392 330.932 120.944 334.628 117.291 339.008C109.476 327.803 99.2013 318.437 87.248 311.692C91.6212 295.994 91.7074 279.354 87.5088 263.627L86.8916 261.312L89.3096 261.959ZM309.937 310.163C315.025 310.483 319.984 311.275 324.772 312.49C323.497 315.504 322.391 318.572 321.455 321.681C318.346 322.617 315.276 323.724 312.262 325C311.046 320.211 310.256 315.252 309.937 310.163ZM37.4326 310.163C37.1128 315.252 36.323 320.211 35.1074 325C32.0931 323.724 29.0236 322.617 25.9141 321.681C24.9778 318.572 23.8725 315.504 22.5967 312.49C27.3851 311.275 32.3441 310.483 37.4326 310.163ZM268.819 269.045C281.372 266.175 294.472 266.328 306.961 269.498C302.934 278.991 300.473 289.31 299.902 300.129C289.083 300.7 278.764 303.161 269.271 307.188C266.102 294.698 265.949 281.598 268.819 269.045ZM40.4082 269.498C52.8975 266.328 65.9968 266.175 78.5498 269.045C81.4202 281.598 81.2675 294.698 78.0977 307.188C68.6049 303.161 58.2866 300.7 47.4668 300.129C46.896 289.31 44.4348 278.991 40.4082 269.498ZM316.529 272.57C325.196 275.963 333.395 280.904 340.701 287.395C336.25 292.372 332.441 297.725 329.273 303.342C323.063 301.61 316.586 300.517 309.919 300.146C310.496 290.39 312.799 281.097 316.529 272.57ZM30.8398 272.57C34.5697 281.097 36.8735 290.39 37.4502 300.146C30.7835 300.517 24.3065 301.61 18.0957 303.342C14.9283 297.725 11.1196 292.372 6.66797 287.395C13.9742 280.904 22.1736 275.963 30.8398 272.57ZM173.685 241.746C181.739 248.993 190.774 254.548 200.332 258.413C193.755 269.464 184.623 278.818 173.745 285.661L173.688 285.63L173.685 285.632L173.681 285.63L173.625 285.661C162.747 278.818 153.614 269.464 147.037 258.413C156.595 254.548 165.63 248.993 173.685 241.746ZM291.376 183.04C298.935 192.108 309.893 198.258 322.299 199.521C323.558 211.887 329.671 222.813 338.69 230.37C327.526 238.176 318.192 248.427 311.466 260.348C295.768 255.974 279.128 255.887 263.401 260.086L260.982 260.731L261.601 258.418C265.799 242.69 265.712 226.05 261.338 210.352C261.763 210.111 262.186 209.867 262.607 209.62C262.688 209.573 262.767 209.525 262.848 209.478C263.163 209.292 263.477 209.104 263.789 208.915C263.932 208.828 264.075 208.741 264.218 208.653C264.504 208.478 264.789 208.301 265.073 208.122C265.19 208.048 265.307 207.975 265.424 207.9C265.744 207.697 266.063 207.492 266.381 207.284C266.457 207.234 266.533 207.185 266.609 207.135C267.425 206.599 268.231 206.05 269.027 205.489C269.087 205.447 269.147 205.404 269.207 205.361C269.55 205.119 269.891 204.873 270.23 204.626C270.296 204.578 270.361 204.53 270.427 204.482C270.757 204.24 271.085 203.996 271.412 203.75C271.48 203.698 271.549 203.647 271.617 203.596C271.942 203.349 272.265 203.1 272.587 202.85C272.656 202.796 272.726 202.742 272.795 202.688C273.949 201.783 275.08 200.851 276.188 199.893C276.24 199.847 276.293 199.801 276.346 199.755C276.668 199.475 276.988 199.193 277.306 198.909C277.354 198.866 277.402 198.823 277.45 198.779C277.776 198.487 278.099 198.193 278.42 197.896C278.461 197.858 278.503 197.82 278.544 197.782C283.328 193.347 287.634 188.405 291.376 183.04ZM55.9932 183.04C59.7348 188.405 64.0422 193.346 68.8262 197.782C68.8674 197.82 68.9089 197.858 68.9502 197.896C69.2713 198.193 69.5946 198.487 69.9199 198.779C69.9679 198.822 70.0154 198.866 70.0635 198.909C70.3814 199.193 70.7015 199.475 71.0234 199.755C71.0764 199.801 71.1296 199.847 71.1826 199.893C72.2903 200.851 73.4208 201.783 74.5742 202.688C74.6436 202.742 74.7137 202.795 74.7832 202.85C75.1048 203.1 75.4279 203.349 75.7529 203.596C75.8211 203.647 75.8897 203.698 75.958 203.75C76.2845 203.996 76.6124 204.241 76.9424 204.482C77.008 204.531 77.0739 204.578 77.1396 204.626C77.4788 204.873 77.8194 205.119 78.1621 205.361C78.2223 205.404 78.2824 205.447 78.3428 205.489C79.1394 206.05 79.9455 206.599 80.7607 207.135C80.8366 207.185 80.9123 207.235 80.9883 207.284C81.3061 207.492 81.6257 207.697 81.9463 207.9C82.063 207.975 82.1798 208.048 82.2969 208.122C82.5809 208.301 82.8662 208.478 83.1523 208.653C83.295 208.741 83.4379 208.828 83.5811 208.915C83.8936 209.104 84.2075 209.292 84.5225 209.478C84.6027 209.525 84.6823 209.573 84.7627 209.62C85.1837 209.867 85.6059 210.112 86.0312 210.352C81.6574 226.05 81.5698 242.69 85.7686 258.418L86.3867 260.731L83.9678 260.086C68.2409 255.887 51.6016 255.974 35.9033 260.348C29.1773 248.427 19.8431 238.176 8.67871 230.37C17.6977 222.813 23.811 211.887 25.0703 199.521C37.4758 198.258 48.434 192.108 55.9932 183.04ZM252.183 214.858C255.352 227.347 255.504 240.445 252.633 252.996C246.749 254.343 240.746 255.024 234.742 255.042C227.938 255.061 221.132 254.229 214.498 252.546C218.524 243.053 220.987 232.736 221.558 221.916C223.067 221.836 224.567 221.718 226.056 221.565C226.415 221.529 226.773 221.49 227.131 221.449C228.884 221.249 230.623 220.999 232.345 220.7C232.434 220.685 232.523 220.669 232.612 220.653C233.171 220.555 233.728 220.451 234.283 220.342C234.405 220.318 234.527 220.294 234.649 220.27C236.899 219.819 239.119 219.285 241.306 218.672C241.848 218.52 242.389 218.363 242.927 218.201C243.747 217.955 244.562 217.696 245.372 217.427C247.685 216.659 249.957 215.802 252.183 214.858ZM95.1865 214.858C97.4128 215.803 99.6851 216.659 101.998 217.427C102.808 217.696 103.623 217.955 104.442 218.201C104.981 218.363 105.521 218.52 106.063 218.672C108.25 219.285 110.47 219.819 112.72 220.27C112.842 220.294 112.964 220.318 113.087 220.342C113.642 220.451 114.198 220.555 114.757 220.653C114.846 220.669 114.936 220.685 115.025 220.7C116.747 220.999 118.485 221.249 120.238 221.449C120.596 221.49 120.955 221.529 121.314 221.565C122.803 221.718 124.302 221.836 125.812 221.916C126.382 232.736 128.845 243.053 132.871 252.546C126.238 254.229 119.432 255.061 112.628 255.042C106.624 255.024 100.62 254.343 94.7363 252.996C91.8652 240.445 92.0175 227.347 95.1865 214.858ZM192.185 218.704C198.395 220.435 204.87 221.528 211.536 221.899C210.96 231.655 208.656 240.945 204.927 249.472C196.262 246.079 188.063 241.14 180.758 234.65C185.209 229.673 189.017 224.321 192.185 218.704ZM155.186 218.704C158.353 224.321 162.16 229.673 166.611 234.65C159.306 241.14 151.108 246.079 142.443 249.472C138.714 240.945 136.41 231.655 135.833 221.899C142.499 221.528 148.975 220.435 155.186 218.704ZM173.685 211.266C176.545 212.802 179.496 214.189 182.529 215.417C180.003 219.662 177.056 223.728 173.685 227.552C170.313 223.728 167.366 219.662 164.84 215.417C167.873 214.189 170.825 212.802 173.685 211.266ZM234.289 181.118C240.779 188.424 245.719 196.623 249.111 205.289C247.36 206.055 245.575 206.76 243.762 207.403C243.369 207.542 242.976 207.68 242.581 207.813C242.102 207.975 241.62 208.131 241.137 208.284C240.498 208.486 239.857 208.682 239.212 208.868C238.738 209.005 238.261 209.137 237.783 209.266C236.036 209.736 234.265 210.149 232.474 210.503C231.751 210.646 231.026 210.779 230.297 210.902C227.427 211.388 224.505 211.723 221.541 211.898C221.169 205.231 220.077 198.754 218.345 192.543C223.961 189.376 229.312 185.569 234.289 181.118ZM113.081 181.118C118.058 185.569 123.409 189.376 129.024 192.543C127.292 198.754 126.201 205.231 125.829 211.898C122.864 211.723 119.943 211.388 117.072 210.902C116.343 210.779 115.618 210.646 114.896 210.503C113.104 210.149 111.334 209.736 109.587 209.266C109.109 209.137 108.632 209.005 108.157 208.868C107.512 208.682 106.871 208.486 106.232 208.284C105.749 208.131 105.267 207.975 104.788 207.813C104.393 207.68 104 207.542 103.607 207.403C101.794 206.76 100.01 206.055 98.2588 205.289C101.651 196.623 106.591 188.424 113.081 181.118ZM209.193 197.044C210.409 201.832 211.199 206.792 211.519 211.881C206.431 211.561 201.473 210.77 196.686 209.555C197.962 206.541 199.069 203.472 200.005 200.363C203.113 199.427 206.18 198.32 209.193 197.044ZM138.177 197.044C141.19 198.319 144.256 199.427 147.364 200.363C148.301 203.472 149.407 206.541 150.684 209.555C145.896 210.77 140.939 211.561 135.852 211.881C136.172 206.792 136.961 201.833 138.177 197.044ZM160.252 141.611C164.042 143.098 167.692 144.862 171.178 146.878L173.682 148.326L173.685 148.324L173.688 148.326L176.191 146.878C179.677 144.862 183.328 143.098 187.118 141.611C188.748 145.343 190.083 149.173 191.122 153.064L191.868 155.859H191.87V155.862L194.667 156.608C196.813 157.181 198.939 157.847 201.041 158.6C202.045 158.959 203.044 159.34 204.036 159.74C204.403 159.888 204.769 160.038 205.134 160.191C205.462 160.329 205.79 160.468 206.116 160.61C204.629 164.402 202.865 168.054 200.847 171.541L199.396 174.046L200.847 176.551C202.864 180.037 204.628 183.689 206.115 187.479C202.383 189.109 198.554 190.445 194.662 191.483L191.865 192.229L191.119 195.025C190.081 198.917 188.746 202.745 187.117 206.477C183.328 204.99 179.677 203.23 176.191 201.214L173.688 199.766L173.685 199.767L173.682 199.766L171.178 201.214C167.693 203.23 164.042 204.99 160.253 206.477C158.624 202.745 157.288 198.917 156.25 195.025L155.504 192.229L152.707 191.483C148.815 190.445 144.986 189.109 141.254 187.479C142.741 183.689 144.505 180.037 146.522 176.551L147.973 174.046L146.522 171.541C144.504 168.054 142.74 164.402 141.253 160.61C141.579 160.468 141.907 160.329 142.235 160.191C142.6 160.038 142.966 159.888 143.333 159.74C144.326 159.339 145.325 158.959 146.329 158.6C148.431 157.847 150.556 157.181 152.702 156.608L155.499 155.862L155.5 155.859L156.247 153.064C157.286 149.173 158.622 145.344 160.252 141.611ZM258.052 147.396C269.123 153.985 278.491 163.141 285.335 174.046C279.239 183.76 271.14 192.082 261.62 198.441C260.452 199.222 259.263 199.975 258.053 200.695C254.187 191.136 248.633 182.1 241.386 174.046C248.632 165.992 254.186 156.955 258.052 147.396ZM89.3184 147.396C93.1839 156.955 98.7369 165.992 105.983 174.046C98.7364 182.1 93.182 191.136 89.3164 200.695C88.1059 199.975 86.9168 199.222 85.748 198.441C76.2285 192.082 68.13 183.76 62.0342 174.046C68.8786 163.141 78.247 153.986 89.3184 147.396ZM215.058 165.199C219.303 167.726 223.367 170.674 227.191 174.046C223.367 177.418 219.302 180.365 215.057 182.892C213.828 179.858 212.44 176.906 210.903 174.046C212.44 171.185 213.828 168.233 215.058 165.199ZM132.312 165.199C133.542 168.233 134.929 171.185 136.466 174.046C134.929 176.906 133.543 179.859 132.313 182.892C128.068 180.365 124.002 177.418 120.178 174.046C124.002 170.674 128.067 167.726 132.312 165.199ZM221.541 136.191C231.295 136.769 240.586 139.073 249.111 142.803C245.719 151.468 240.779 159.667 234.289 166.973C229.312 162.522 223.961 158.714 218.345 155.548C220.077 149.336 221.169 142.859 221.541 136.191ZM125.829 136.191C126.201 142.859 127.292 149.336 129.024 155.548C123.408 158.714 118.058 162.522 113.081 166.973C106.591 159.667 101.65 151.468 98.2578 142.803C106.784 139.073 116.075 136.769 125.829 136.191ZM263.403 87.9121C279.131 92.1139 295.769 92.0285 311.467 87.6553C318.205 99.596 327.56 109.862 338.75 117.673C329.698 125.231 323.561 136.179 322.299 148.571C309.894 149.835 298.935 155.984 291.376 165.052C283.563 153.849 273.29 144.483 261.338 137.739C265.711 122.041 265.798 105.402 261.598 89.6768L260.951 87.2578L263.403 87.9121ZM85.7715 89.6768C81.5715 105.402 81.6581 122.041 86.0312 137.739C74.0796 144.483 63.8065 153.849 55.9932 165.052C48.434 155.984 37.4754 149.835 25.0703 148.571C23.808 136.179 17.6708 125.231 8.61914 117.673C19.8092 109.862 29.1644 99.596 35.9023 87.6553C51.6 92.0285 68.2381 92.1139 83.9658 87.9121L86.418 87.2578L85.7715 89.6768ZM211.519 136.209C211.199 141.298 210.408 146.257 209.192 151.046C206.179 149.77 203.111 148.664 200.003 147.728C199.067 144.618 197.959 141.549 196.684 138.535C201.472 137.32 206.431 136.529 211.519 136.209ZM135.852 136.209C140.939 136.529 145.898 137.32 150.686 138.535C149.41 141.549 148.303 144.618 147.367 147.728C144.259 148.664 141.19 149.77 138.177 151.046C136.961 146.257 136.171 141.298 135.852 136.209ZM173.685 120.539C177.056 124.363 180.003 128.428 182.529 132.673C179.496 133.901 176.545 135.288 173.685 136.824C170.825 135.288 167.873 133.901 164.84 132.673C167.366 128.428 170.313 124.363 173.685 120.539ZM214.498 95.5449C226.987 92.3758 240.086 92.2238 252.637 95.0947C255.506 107.646 255.353 120.744 252.185 133.231C242.693 129.206 232.375 126.746 221.558 126.175C220.987 115.355 218.524 105.038 214.498 95.5449ZM94.7334 95.0947C107.284 92.224 120.383 92.3759 132.871 95.5449C128.845 105.038 126.382 115.355 125.812 126.175C114.994 126.746 104.677 129.206 95.1855 133.231C92.0167 120.744 91.8639 107.646 94.7334 95.0947ZM204.928 98.6182C208.657 107.145 210.959 116.436 211.536 126.191C204.87 126.563 198.394 127.653 192.184 129.385C189.017 123.769 185.208 118.418 180.758 113.441C188.063 106.952 196.262 102.01 204.928 98.6182ZM142.442 98.6182C151.108 102.01 159.306 106.952 166.611 113.441C162.161 118.418 158.353 123.769 155.187 129.385C148.976 127.653 142.499 126.563 135.833 126.191C136.41 116.436 138.713 107.145 142.442 98.6182ZM173.685 62.3896C184.59 69.2363 193.743 78.6067 200.333 89.6787C190.774 93.5439 181.739 99.0985 173.685 106.345C165.631 99.0985 156.595 93.5439 147.036 89.6787C153.626 78.6067 162.78 69.2363 173.685 62.3896ZM230.057 8.96289C237.874 20.1816 248.158 29.5599 260.122 36.3105C255.75 52.0083 255.662 68.6471 259.862 84.3721L260.508 86.7871L258.054 86.1328C251.768 84.4549 245.337 83.4635 238.879 83.1543C238.227 83.1231 237.576 83.0973 236.924 83.0801C227.869 82.8404 218.783 83.9432 209.993 86.3916C203.247 74.4354 193.877 64.1582 182.668 56.3428C191.744 48.7829 197.899 37.821 199.163 25.4082C199.216 25.4028 199.269 25.3952 199.322 25.3896C199.593 25.3611 199.863 25.33 200.132 25.2969C200.236 25.2841 200.34 25.2713 200.443 25.2578C200.729 25.2206 201.015 25.1811 201.299 25.1387C201.46 25.1147 201.621 25.0891 201.781 25.0635C201.951 25.0364 202.12 25.0084 202.289 24.9795C202.512 24.9414 202.734 24.9016 202.956 24.8604C203.116 24.8304 203.277 24.8001 203.437 24.7686C203.618 24.7328 203.799 24.6961 203.979 24.6582C204.164 24.6194 204.348 24.579 204.532 24.5381C204.774 24.4843 205.015 24.4286 205.255 24.3711C205.367 24.3441 205.48 24.3168 205.592 24.2891C205.836 24.2285 206.08 24.1659 206.323 24.1016C206.483 24.0593 206.642 24.0166 206.801 23.9727C207.01 23.9147 207.219 23.8548 207.428 23.7939C207.457 23.7854 207.486 23.7772 207.516 23.7686C207.903 23.6549 208.287 23.5365 208.67 23.4131C208.72 23.3969 208.77 23.3806 208.82 23.3643C209.449 23.1589 210.072 22.9402 210.689 22.709C210.72 22.6975 210.751 22.6854 210.781 22.6738C218.346 19.8212 224.969 15.0544 230.057 8.96289ZM117.312 8.96289C124.006 16.9772 133.355 22.7015 144.014 24.7832C144.193 24.8185 144.373 24.8535 144.554 24.8867C144.671 24.9081 144.788 24.9297 144.905 24.9502C145.208 25.0034 145.513 25.0541 145.82 25.1016C145.923 25.1175 146.027 25.1313 146.13 25.1465C146.377 25.1829 146.625 25.2183 146.875 25.251C146.979 25.2646 147.083 25.2781 147.188 25.291C147.474 25.3265 147.762 25.3591 148.053 25.3896C148.104 25.395 148.155 25.403 148.206 25.4082C149.47 37.821 155.626 48.7829 164.701 56.3428C153.493 64.1581 144.123 74.4356 137.377 86.3916C128.587 83.9431 119.501 82.8405 110.446 83.0801C109.794 83.0973 109.142 83.1231 108.49 83.1543C102.032 83.4635 95.6007 84.4549 89.3154 86.1328L86.8623 86.7871L87.5068 84.3721C91.7067 68.6471 91.6196 52.0083 87.2471 36.3105C99.2116 29.5599 109.495 20.1816 117.312 8.96289ZM269.271 40.8154C278.764 44.8416 289.083 47.3032 299.902 47.874C300.473 58.6936 302.934 69.0126 306.961 78.5059C294.473 81.6752 281.375 81.8258 268.822 78.9531C265.951 66.4024 266.103 53.304 269.271 40.8154ZM78.0977 40.8154C81.2666 53.304 81.418 66.4024 78.5469 78.9531C65.9944 81.8258 52.8965 81.6752 40.4082 78.5059C44.4351 69.0126 46.8959 58.6936 47.4668 47.874C58.2865 47.3032 68.605 44.8416 78.0977 40.8154ZM329.274 44.6621C332.441 50.2787 336.25 55.6303 340.701 60.6074C333.394 67.099 325.195 72.0402 316.529 75.4326C312.799 66.9055 310.496 57.6131 309.919 47.8574C316.586 47.4855 323.063 46.3943 329.274 44.6621ZM18.0947 44.6621C24.3058 46.3943 30.7832 47.4855 37.4502 47.8574C36.8734 57.6131 34.5698 66.9055 30.8398 75.4326C22.1742 72.0402 13.9749 67.099 6.66797 60.6074C11.1191 55.6303 14.9278 50.2787 18.0947 44.6621ZM287.168 7.07422C292.145 11.5252 297.497 15.3331 303.113 18.5C301.381 24.7115 300.291 31.1899 299.919 37.8574C290.163 37.2807 280.87 34.9763 272.344 31.2471C275.736 22.58 280.678 14.3804 287.168 7.07422ZM60.2012 7.07422C66.6916 14.3804 71.6332 22.58 75.0254 31.2471C66.4986 34.9763 57.2061 37.2807 47.4502 37.8574C47.0783 31.1899 45.9879 24.7115 44.2559 18.5C49.8722 15.3331 55.2243 11.5252 60.2012 7.07422ZM312.263 23C315.277 24.2762 318.347 25.3833 321.457 26.3193C322.393 29.4291 323.499 32.4984 324.775 35.5127C319.986 36.7287 315.026 37.52 309.937 37.8398C310.256 32.7501 311.047 27.7895 312.263 23ZM35.1064 23C36.3223 27.7895 37.1127 32.7501 37.4326 37.8398C32.3431 37.52 27.383 36.7287 22.5938 35.5127C23.8697 32.4984 24.9761 29.4291 25.9121 26.3193C29.0222 25.3833 32.0918 24.2762 35.1064 23Z" fill="#000000" fill-opacity="1"/>
</svg>
